<svg width="490" height="56" viewBox="0 0 490 56" fill="none" xmlns="http://www.w3.org/2000/svg">
<rect width="490" height="56" rx="28" fill="#EBECED"/>
<path d="M46 35H49V30C49 29.7167 49.096 29.4793 49.288 29.288C49.48 29.0967 49.7173 29.0007 50 29H54C54.2833 29 54.521 29.096 54.713 29.288C54.905 29.48 55.0007 29.7173 55 30V35H58V26L52 21.5L46 26V35ZM44 35V26C44 25.6833 44.071 25.3833 44.213 25.1C44.355 24.8167 44.5507 24.5833 44.8 24.4L50.8 19.9C51.15 19.6333 51.55 19.5 52 19.5C52.45 19.5 52.85 19.6333 53.2 19.9L59.2 24.4C59.45 24.5833 59.646 24.8167 59.788 25.1C59.93 25.3833 60.0007 25.6833 60 26V35C60 35.55 59.804 36.021 59.412 36.413C59.02 36.805 58.5493 37.0007 58 37H54C53.7167 37 53.4793 36.904 53.288 36.712C53.0967 36.52 53.0007 36.2827 53 36V31H51V36C51 36.2833 50.904 36.521 50.712 36.713C50.52 36.905 50.2827 37.0007 50 37H46C45.45 37 44.9793 36.8043 44.588 36.413C44.1967 36.0217 44.0007 35.5507 44 35Z" fill="#3E2F56"/>
<path d="M126 26.95L128.15 24.775L126.75 23.35L125.65 24.45L124.25 23.05L125.325 21.95L124.2 20.825L122.025 23L126 26.95ZM134.2 35.175L136.375 33L135.25 31.875L134.15 32.95L132.75 31.55L133.825 30.45L132.4 29.05L130.25 31.2L134.2 35.175ZM124.45 37H120.2V32.75L124.575 28.375L119.2 23L124.2 18L129.6 23.4L134.825 18.15L139.025 22.4L133.825 27.625L139.2 33L134.2 38L128.825 32.625L124.45 37ZM122.2 35H123.6L133.4 25.225L131.975 23.8L122.2 33.6V35ZM132.7 24.525L131.975 23.8L133.4 25.225L132.7 24.525Z" fill="#3E2F56"/>
<path d="M202.065 32L199.89 23L206.39 17L212.89 23L210.715 32H202.065ZM203.64 30H209.14L210.665 23.675L207.39 20.65V23.3C207.623 23.4667 207.807 23.675 207.94 23.925C208.073 24.175 208.14 24.45 208.14 24.75C208.14 25.2333 207.969 25.646 207.627 25.988C207.285 26.33 206.873 26.5007 206.39 26.5C205.907 26.4993 205.495 26.3283 205.153 25.987C204.811 25.6457 204.64 25.2333 204.64 24.75C204.64 24.45 204.707 24.175 204.84 23.925C204.973 23.675 205.157 23.4667 205.39 23.3V20.65L202.115 23.675L203.64 30ZM198.39 37L198.94 35.375C199.073 34.9583 199.315 34.625 199.665 34.375C200.015 34.125 200.407 34 200.84 34H211.94C212.373 34 212.765 34.125 213.115 34.375C213.465 34.625 213.707 34.9583 213.84 35.375L214.39 37H198.39Z" fill="#3E2F56"/>
<path d="M277.59 30H280.64L286.665 23.975L283.69 20.85L277.59 26.95V30ZM279.09 28.5V27.55L281.615 25.025L282.115 25.475L282.565 25.975L280.04 28.5H279.09ZM282.115 25.475L282.565 25.975L281.615 25.025L282.115 25.475ZM282.765 30H289.59V28H284.765L282.765 30ZM273.59 38V18H293.59V34H277.59L273.59 38ZM276.74 32H291.59V20H275.59V33.125L276.74 32Z" fill="#3E2F56"/>
<path d="M355.78 22V21C355.78 20.45 355.976 19.9793 356.368 19.588C356.76 19.1967 357.231 19.0007 357.78 19H363.78C364.33 19 364.801 19.196 365.193 19.588C365.585 19.98 365.781 20.4507 365.78 21V22H366.48C366.863 22 367.222 22.1083 367.555 22.325C367.888 22.5417 368.13 22.8333 368.28 23.2L370.63 28.6C370.68 28.7333 370.718 28.8667 370.743 29C370.768 29.1333 370.781 29.2667 370.78 29.4V34C370.78 34.55 370.584 35.021 370.193 35.413C369.802 35.805 369.331 36.0007 368.78 36H352.78C352.23 36 351.759 35.8043 351.368 35.413C350.977 35.0217 350.781 34.5507 350.78 34V29.4C350.78 29.2667 350.793 29.1333 350.818 29C350.843 28.8667 350.881 28.7333 350.93 28.6L353.28 23.2C353.43 22.8333 353.672 22.5417 354.005 22.325C354.338 22.1083 354.697 22 355.08 22H355.78ZM357.78 22H363.78V21H357.78V22ZM355.78 28V27.975C355.78 27.6917 355.876 27.4543 356.068 27.263C356.26 27.0717 356.497 26.9753 356.78 26.974C357.063 26.9727 357.3 27.0687 357.493 27.262C357.686 27.4553 357.781 27.6927 357.78 27.974V28H363.78V27.975C363.78 27.6917 363.876 27.4543 364.068 27.263C364.26 27.0717 364.497 26.9757 364.78 26.975C365.063 26.9743 365.3 27.0703 365.493 27.263C365.686 27.4557 365.781 27.693 365.78 27.975V28H368.18L366.48 24H355.08L353.38 28H355.78ZM355.78 30H352.78V34H368.78V30H365.78V30.025C365.78 30.3083 365.684 30.546 365.492 30.738C365.3 30.93 365.063 31.0257 364.78 31.025C364.497 31.0243 364.26 30.9283 364.068 30.737C363.876 30.5457 363.78 30.3083 363.78 30.025V30H357.78V30.025C357.78 30.3083 357.684 30.546 357.492 30.738C357.3 30.93 357.063 31.0257 356.78 31.025C356.497 31.0243 356.26 30.9283 356.068 30.737C355.876 30.5457 355.78 30.3087 355.78 30.026V30Z" fill="#3E2F56"/>
<path d="M437.98 38C435.663 37.4167 433.751 36.0873 432.242 34.012C430.733 31.9367 429.979 29.6327 429.98 27.1V21L437.98 18L445.98 21V27.1C445.98 29.6333 445.226 31.9377 443.718 34.013C442.21 36.0883 440.297 37.4173 437.98 38ZM437.98 35.9C439.713 35.35 441.147 34.25 442.28 32.6C443.413 30.95 443.98 29.1167 443.98 27.1V22.375L437.98 20.125L431.98 22.375V27.1C431.98 29.1167 432.547 30.95 433.68 32.6C434.813 34.25 436.247 35.35 437.98 35.9ZM437.98 33C438.263 33 438.509 32.896 438.718 32.688C438.927 32.48 439.031 32.234 439.03 31.95C439.029 31.666 438.925 31.4203 438.718 31.213C438.511 31.0057 438.265 30.9013 437.98 30.9C437.695 30.8987 437.45 31.003 437.243 31.213C437.036 31.423 436.932 31.6687 436.93 31.95C436.928 32.2313 437.032 32.4773 437.243 32.688C437.454 32.8987 437.699 33.0027 437.98 33ZM437.255 29.8H438.755V29.25C438.755 29.0667 438.797 28.8917 438.88 28.725C438.98 28.4917 439.113 28.296 439.28 28.138C439.447 27.98 439.622 27.8173 439.805 27.65C440.088 27.3667 440.334 27.05 440.543 26.7C440.752 26.35 440.856 25.9667 440.855 25.55C440.855 24.8 440.568 24.1873 439.993 23.712C439.418 23.2367 438.747 22.9993 437.98 23C437.313 23 436.718 23.1917 436.193 23.575C435.668 23.9583 435.314 24.4667 435.13 25.1L436.48 25.65C436.58 25.3167 436.768 25.0333 437.043 24.8C437.318 24.5667 437.631 24.45 437.98 24.45C438.347 24.45 438.668 24.5583 438.943 24.775C439.218 24.9917 439.356 25.2667 439.355 25.6C439.355 25.8833 439.268 26.146 439.093 26.388C438.918 26.63 438.722 26.8507 438.505 27.05C438.305 27.2333 438.105 27.421 437.905 27.613C437.705 27.805 437.547 28.0257 437.43 28.275C437.313 28.5083 437.255 28.7543 437.255 29.013V29.8Z" fill="#3E2F56"/>
</svg>
