<svg width="68" height="12" viewBox="0 0 68 12" fill="none" xmlns="http://www.w3.org/2000/svg">
<g clip-path="url(#clip0_1_442)">
<path d="M3.81249 3.1998L5.99999 0.362305L8.18749 3.1998L11.6125 4.3498L9.44999 7.4123L9.53749 10.8248L5.99999 9.8373L2.46249 10.8248L2.54999 7.3998L0.399994 4.3498L3.81249 3.1998Z" fill="#3E2F56"/>
<path d="M17.8125 3.1998L20 0.362305L22.1875 3.1998L25.6125 4.3498L23.45 7.4123L23.5375 10.8248L20 9.8373L16.4625 10.8248L16.55 7.3998L14.4 4.3498L17.8125 3.1998Z" fill="#3E2F56"/>
<path d="M31.8125 3.1998L34 0.362305L36.1875 3.1998L39.6125 4.3498L37.45 7.4123L37.5375 10.8248L34 9.8373L30.4625 10.8248L30.55 7.3998L28.4 4.3498L31.8125 3.1998Z" fill="#3E2F56"/>
<path d="M45.8125 3.1998L48 0.362305L50.1875 3.1998L53.6125 4.3498L51.45 7.4123L51.5375 10.8248L48 9.8373L44.4625 10.8248L44.55 7.3998L42.4 4.3498L45.8125 3.1998Z" fill="#3E2F56"/>
<path d="M59.8125 3.1998L62 0.362305L64.1875 3.1998L67.6125 4.3498L65.45 7.4123L65.5375 10.8248L62 9.8373L58.4625 10.8248L58.55 7.3998L56.4 4.3498L59.8125 3.1998Z" fill="#3E2F56"/>
</g>
<defs>
<clipPath id="clip0_1_442">
<rect width="68" height="12" fill="white"/>
</clipPath>
</defs>
</svg>
